#!OML:ASF I:\Actors\actors\Patient Classification 2\Patient 1\Session 1\actor1.ASF
:FULLY-SPECIFIED
:DEGREES
343
root -0.647465 18.9655 5.37602 15.4875 -0.765035 0.535976
lowerback 24.1681 -0.145317 1.0317
upperback 0.790211 0.383789 2.18996
thorax -12.7077 0.198228 1.75521
lowerneck -19.5019 -1.67605 -1.63774
upperneck 13.5508 -1.70795 -0.618283
head 7.36263 -0.964198 -0.140769
rclavicle 2.78299e-015 -1.51076e-014
rhumerus -7.74064 8.18141 4.35921
rradius 38.2823
rwrist 39.3332
rhand -0.323152 -43.2416
rfingers 7.12502
rthumb 25.2808 -71.5865
lclavicle 2.78299e-015 -1.51076e-014
lhumerus -7.38213 -5.99505 3.82659
lradius 30.0481
lwrist -48.6497
lhand 6.86174 -19.0019
lfingers 7.12502
lthumb 32.1441 8.17507
rfemur -10.1851 1.43465 12.135
rtibia 2.78299e-014
rfoot -14.1208 -13.555
rtoes -1.83361
lfemur -20.3508 -3.93898 -13.0991
ltibia 19.6383
lfoot -16.8898 12.9747
ltoes -55.0267
344
root -0.646989 18.9625 5.39261 15.5073 -0.720821 0.50336
lowerback 24.1535 -0.149856 1.05837
upperback 0.748018 0.388717 2.21006
thorax -12.7487 0.1999 1.76158
lowerneck -19.3316 -1.71557 -1.71003
upperneck 13.4406 -1.75451 -0.571593
head 7.29912 -0.985163 -0.117141
rclavicle 1.07344e-014 -1.98785e-014
rhumerus -9.46915 9.58631 4.34727
rradius 38.4553
rwrist 39.0492
rhand 0.050317 -42.9875
rfingers 7.12502
rthumb 25.6386 -71.2813
lclavicle 1.07344e-014 -1.98785e-014
lhumerus -9.51557 -8.07051 3.85453
lradius 30.4216
lwrist -48.2698
lhand 6.8382 -19.2471
lfingers 7.12502
lthumb 32.1217 7.93435
rfemur -10.1344 1.39956 12.1834
rtibia 1.98785e-014
rfoot -14.2141 -13.4929
rtoes -1.76616
lfemur -20.3071 -4.01923 -13.0453
ltibia 19.625
lfoot -16.9584 12.99
ltoes -54.9934
345
root -0.642813 18.9594 5.40863 15.5215 -0.696983 0.491301
lowerback 24.1496 -0.167512 1.14021
upperback 0.707233 0.388398 2.2039
thorax -12.7934 0.194685 1.7083
lowerneck -19.0999 -1.75774 -1.80543
upperneck 13.2925 -1.80458 -0.500379
head 7.21352 -1.0065 -0.081362
rclavicle -4.77083e-015 2.3059e-014
rhumerus -11.1577 11.009 4.23001
rradius 38.5894
rwrist 38.7375
rhand 0.582938 -42.6088
rfingers 7.12502
rthumb 26.1486 -70.8282
lclavicle -4.77083e-015 2.3059e-014
lhumerus -11.7067 -10.4843 4.03815
lradius 30.8078
lwrist -47.5752
lhand 6.91703 -19.3962
lfingers 7.12502
lthumb 32.1967 7.77013
rfemur -10.0905 1.37554 12.1904
rtibia -2.38542e-015
rfoot -14.2457 -13.4745
rtoes -2.16842
lfemur -20.2605 -4.17303 -13.0147
ltibia 19.6024
lfoot -17.0488 13.0677
ltoes -54.9335
346
root -0.636682 18.9566 5.42394 15.5182 -0.711425 0.492438
lowerback 24.144 -0.186379 1.20479
upperback 0.65918 0.380462 2.1872
thorax -12.8453 0.186594 1.65573
lowerneck -18.823 -1.74067 -1.75488
upperneck 13.1925 -1.79771 -0.525455
head 7.13361 -1.00245 -0.0939481
rclavicle 6.36111e-015 7.95139e-016
rhumerus -12.8347 12.3216 3.97985
rradius 38.7415
rwrist 38.5443
rhand 1.32029 -42.1849
rfingers 7.12502
rthumb 26.8544 -70.2978
lclavicle 6.36111e-015 7.95139e-016
lhumerus -13.948 -12.8602 4.46655
lradius 31.1271
lwrist -46.4513
lhand 7.1013 -19.309
lfingers 7.12502
lthumb 32.3721 7.82158
rfemur -10.0446 1.38428 12.1632
rtibia 1.27222e-014
rfoot -14.2429 -13.4716
rtoes -2.47589
lfemur -20.1823 -4.27848 -13.0289
ltibia 19.5677
lfoot -17.1074 13.1423
ltoes -54.988
347
root -0.632951 18.9551 5.43879 15.5274 -0.753541 0.496831
lowerback 24.1049 -0.180583 1.17541
upperback 0.619598 0.381732 2.2003
thorax -12.8699 0.189671 1.68736
lowerneck -18.6559 -1.75992 -1.76885
upperneck 13.1892 -1.8331 -0.473083
head 7.10539 -1.01509 -0.077116
rclavicle 1.19271e-015 3.26007e-014
rhumerus -14.416 13.4188 3.69812
rradius 38.8631
rwrist 38.5622
rhand 1.98541 -41.946
rfingers 7.12502
rthumb 27.4906 -69.9594
lclavicle 1.19271e-015 3.26007e-014
lhumerus -16.0612 -15.3069 5.10381
lradius 31.3158
lwrist -44.8309
lhand 7.37051 -18.9486
lfingers 7.12502
lthumb 32.6283 8.12932
rfemur -10.0112 1.41941 12.1362
rtibia 3.33958e-014
rfoot -14.2623 -13.4748
rtoes -2.61836
lfemur -20.1043 -4.19587 -13.0761
ltibia 19.5255
lfoot -17.1093 13.107
ltoes -55.1315
348
root -0.630616 18.9534 5.45399 15.5539 -0.84456 0.525898
lowerback 24.0648 -0.13306 1.11368
upperback 0.573429 0.425665 2.18973
thorax -12.9025 0.213281 1.69608
lowerneck -18.5606 -1.8562 -1.82445
upperneck 13.2455 -1.96769 -0.3757
head 7.11022 -1.07343 -0.0511078
rclavicle 2.38542e-015 6.36111e-015
rhumerus -16.0248 14.4591 3.38011
rradius 39.0164
rwrist 38.7408
rhand 2.4052 -41.8557
rfingers 7.12502
rthumb 27.892 -69.8046
lclavicle 2.38542e-015 6.36111e-015
lhumerus -17.9031 -17.9118 5.85336
lradius 31.4034
lwrist -43.1771
lhand 7.9757 -18.6467
lfingers 7.12502
lthumb 33.2039 8.31022
rfemur -9.99579 1.4931 12.0755
rtibia 1.59028e-015
rfoot -14.3594 -13.4314
rtoes -2.50887
lfemur -20.0352 -4.10774 -13.1452
ltibia 19.4846
lfoot -17.1687 13.0938
ltoes -55.1462
349
root -0.62859 18.9514 5.4703 15.5761 -0.964828 0.577932
lowerback 24.0349 -0.0606934 1.05202
upperback 0.503691 0.498594 2.14584
thorax -12.9686 0.248862 1.65743
lowerneck -18.2968 -1.94069 -1.75515
upperneck 13.2276 -2.09779 -0.425305
head 7.05963 -1.13681 -0.0906262
rclavicle 2.38542e-015 -2.46493e-014
rhumerus -17.7559 15.5509 2.97067
rradius 39.2635
rwrist 38.9769
rhand 2.63367 -41.6109
rfingers 7.12502
rthumb 28.1105 -69.5242
lclavicle 2.38542e-015 -2.46493e-014
lhumerus -19.8596 -20.0715 6.78073
lradius 31.6337
lwrist -42.5041
lhand 8.98023 -18.5985
lfingers 7.12502
lthumb 34.1585 8.14992
rfemur -9.97837 1.58825 11.9812
rtibia -1.74931e-014
rfoot -14.4974 -13.3621
rtoes -2.44918
lfemur -19.9586 -4.0983 -13.2268
ltibia 19.4502
lfoot -17.2867 13.1413
ltoes -55.1035
350
root -0.628071 18.9483 5.48735 15.5925 -1.09485 0.642726
lowerback 23.9741 0.00683941 0.967458
upperback 0.442179 0.557325 2.09743
thorax -13.0076 0.279183 1.63121
lowerneck -17.9709 -1.97577 -1.68848
upperneck 13.184 -2.16338 -0.46364
head 6.9899 -1.16828 -0.117698
rclavicle -7.95139e-016 7.95139e-015
rhumerus -19.43 16.6029 2.47522
rradius 39.4281
rwrist 39.22
rhand 2.94727 -41.2015
rfingers 7.12502
rthumb 28.4102 -69.0652
lclavicle -7.95139e-016 7.95139e-015
lhumerus -22.0341 -21.6772 7.88079
lradius 32.0223
lwrist -42.4099
lhand 10.3719 -18.4921
lfingers 7.12502
lthumb 35.4789 7.95078
rfemur -9.95691 1.69025 11.8733
rtibia -2.94201e-014
rfoot -14.6499 -13.2723
rtoes -2.33621
lfemur -19.8768 -4.11355 -13.3127
ltibia 19.4279
lfoot -17.4413 13.2128
ltoes -55.0472
351
root -0.626888 18.9438 5.5037 15.6102 -1.21742 0.69861
lowerback 23.886 0.0450794 0.915702
upperback 0.384176 0.586123 2.04936
thorax -13.0263 0.293766 1.59659
lowerneck -17.6292 -1.97453 -1.71382
upperneck 13.1293 -2.18131 -0.356599
head 6.91631 -1.16818 -0.0769651
rclavicle -8.74653e-015 -3.73715e-014
rhumerus -20.9504 17.7606 1.93193
rradius 39.4828
rwrist 39.2724
rhand 3.83714 -40.8303
rfingers 7.12502
rthumb 29.2602 -68.549
lclavicle -8.74653e-015 -3.73715e-014
lhumerus -24.319 -23.2055 9.12533
lradius 32.4793
lwrist -41.7501
lhand 12.1158 -17.9137
lfingers 7.12502
lthumb 37.1302 8.117
rfemur -9.93786 1.78668 11.7732
rtibia -1.59028e-014
rfoot -14.7854 -13.1732
rtoes -2.01719
lfemur -19.8028 -4.09364 -13.3901
ltibia 19.4159
lfoot -17.5831 13.2199
ltoes -54.8894
352
root -0.62483 18.9407 5.51946 15.6123 -1.32101 0.696742
lowerback 23.7901 0.0824545 0.923431
upperback 0.344902 0.633863 2.03349
thorax -13.0191 0.314406 1.55753
lowerneck -17.2149 -1.96555 -1.74532
upperneck 12.9752 -2.18385 -0.280059
head 6.79794 -1.16374 -0.0422309
rclavicle 0 -1.35174e-014
rhumerus -22.476 19.049 1.38236
rradius 39.5986
rwrist 38.9372
rhand 4.99771 -40.4458
rfingers 7.12502
rthumb 30.3678 -67.9659
lclavicle 0 -1.35174e-014
lhumerus -26.6159 -24.5448 10.5416
lradius 32.9026
lwrist -40.7267
lhand 13.973 -17.1132
lfingers 7.12502
lthumb 38.8841 8.43992
rfemur -9.90283 1.88435 11.7414
rtibia 1.82882e-014
rfoot -14.8216 -13.1306
rtoes -2.104
lfemur -19.7135 -3.93968 -13.4298
ltibia 19.4049
lfoot -17.6475 13.0922
ltoes -54.8231
353
root -0.623709 18.9395 5.53535 15.6037 -1.39716 0.672107
lowerback 23.718 0.134664 0.955962
upperback 0.308433 0.708675 2.02012
thorax -13.0222 0.345897 1.49799
lowerneck -16.7978 -1.98243 -1.75177
upperneck 12.8211 -2.21921 -0.253122
head 6.67866 -1.17842 -0.0311473
rclavicle -1.55052e-014 -1.03368e-014
rhumerus -24.1714 20.2123 0.759564
rradius 39.868
rwrist 38.7098
rhand 6.11149 -40.1388
rfingers 7.12502
rthumb 31.4296 -67.4575
lclavicle -1.55052e-014 -1.03368e-014
lhumerus -28.7724 -25.6745 12.006
lradius 33.2431
lwrist -39.9882
lhand 15.7501 -16.4605
lfingers 7.12502
lthumb 40.5572 8.59496
rfemur -9.85184 1.9654 11.7474
rtibia 4.37326e-014
rfoot -14.8326 -13.1215
rtoes -2.43182
lfemur -19.6162 -3.81233 -13.4416
ltibia 19.3879
lfoot -17.6881 13.0132
ltoes -54.878
